<svg width="80" height="54" viewBox="0 0 80 54" fill="none" xmlns="http://www.w3.org/2000/svg">
<g id="Logo">
<path id="Vector" d="M22.9296 44C25.6378 36.8139 32.4147 32.0705 39.9732 32.0705C47.5278 32.0705 54.3018 36.8087 57.0129 43.9892M29.9702 43.9966C32.1354 40.4572 35.9406 38.306 40.0354 38.306C44.1312 38.306 47.937 40.4582 50.1019 43.9985M47.9984 23.6356C45.8874 25.8501 42.9858 27.0999 39.9549 27.0999C29.0538 27.0999 31.2624 15.7167 21.4621 15.7167C16.8205 15.7167 12.8263 19.0579 11.925 23.6947M50.0879 18.5001C50.828 18.2247 51.6101 18.0839 52.3982 18.0839C56.1164 18.0839 59.1305 21.1532 59.1305 24.9395C59.1305 28.2309 56.8335 31.0578 53.6584 31.6739M63.2196 26.8409C63.2356 26.8408 63.2517 26.8408 63.2677 26.8408C66.9859 26.8408 70 29.9102 70 33.6964C70 37.4827 66.9857 40.5521 63.2677 40.5521C62.2088 40.5521 61.1648 40.2978 60.2207 39.8097M16.7804 40.5518C16.7644 40.552 16.7483 40.552 16.7323 40.552C13.0141 40.552 10 37.4825 10 33.6962C10 29.9099 13.0143 26.8406 16.7323 26.8406C19.5818 26.8406 22.1227 28.6674 23.0763 31.4019M46.0102 15.1662C46.0102 18.5717 43.2991 21.3324 39.9549 21.3324C36.6107 21.3324 33.8996 18.5717 33.8996 15.1662C33.8996 11.7607 36.6107 9 39.9549 9C43.2991 9 46.0102 11.7607 46.0102 15.1662Z" stroke="#E6EAE8" stroke-width="3.24233" stroke-miterlimit="2.61313" stroke-linecap="round" stroke-linejoin="round"/>
</g>
</svg>
